<?xml version="1.0" encoding="UTF-8" standalone="no"?>
<!DOCTYPE svg PUBLIC "-//W3C//DTD SVG 1.1//EN" "http://www.w3.org/Graphics/SVG/1.1/DTD/svg11.dtd">
<svg width="100%" height="100%" viewBox="0 0 128 128" version="1.1" xmlns="http://www.w3.org/2000/svg" xmlns:xlink="http://www.w3.org/1999/xlink" xml:space="preserve" xmlns:serif="http://www.serif.com/" style="fill-rule:evenodd;clip-rule:evenodd;stroke-linejoin:round;stroke-miterlimit:2;">
    <g transform="matrix(2.25008,0,0,1.95145,-39.8908,-38.9823)">
        <path d="M74.615,36.374L74.615,69.17C74.615,78.22 68.243,85.568 60.394,85.568L31.95,85.568C24.101,85.568 17.729,78.22 17.729,69.17L17.729,36.374C17.729,27.324 24.101,19.976 31.95,19.976L60.394,19.976C68.243,19.976 74.615,27.324 74.615,36.374Z" style="fill:rgb(238,238,239);"/>
        <path d="M74.615,36.374L74.615,69.17C74.615,78.22 68.243,85.568 60.394,85.568L31.95,85.568C24.101,85.568 17.729,78.22 17.729,69.17L17.729,36.374C17.729,27.324 24.101,19.976 31.95,19.976L60.394,19.976C68.243,19.976 74.615,27.324 74.615,36.374ZM74.171,36.374C74.171,27.607 67.998,20.488 60.394,20.488L31.95,20.488C24.346,20.488 18.173,27.607 18.173,36.374L18.173,69.17C18.173,77.938 24.346,85.056 31.95,85.056L60.394,85.056C67.998,85.056 74.171,77.938 74.171,69.17L74.171,36.374Z" style="fill:rgb(117,38,34);"/>
    </g>
    <g transform="matrix(1,0,0,1,-7.33861,68.3673)">
        <g transform="matrix(96,0,0,96,39.8026,30.6727)">
            <path d="M0.08,-0.545L0.08,-0.03C0.08,-0.013 0.093,-0 0.11,-0C0.127,-0 0.14,-0.013 0.14,-0.03L0.14,-0.545C0.14,-0.562 0.127,-0.575 0.11,-0.575C0.093,-0.575 0.08,-0.562 0.08,-0.545ZM0.08,-0.7C0.08,-0.694 0.082,-0.688 0.085,-0.684L0.522,-0.014C0.528,-0.005 0.536,-0 0.547,-0C0.564,-0 0.577,-0.013 0.577,-0.03C0.577,-0.036 0.575,-0.042 0.572,-0.046L0.135,-0.716C0.129,-0.725 0.121,-0.73 0.11,-0.73C0.093,-0.73 0.08,-0.717 0.08,-0.7ZM0.517,-0.185C0.517,-0.168 0.53,-0.155 0.547,-0.155C0.564,-0.155 0.577,-0.168 0.577,-0.185L0.577,-0.7C0.577,-0.717 0.564,-0.73 0.547,-0.73C0.53,-0.73 0.517,-0.717 0.517,-0.7L0.517,-0.185Z" style="fill:rgb(117,38,34);fill-rule:nonzero;"/>
        </g>
    </g>
</svg>
